<mxfile host="65bd71144e">
    <diagram id="fIbgRTPVih6tRUWeNn5W" name="Страница 1">
        <mxGraphModel dx="791" dy="426" grid="1" gridSize="10" guides="1" tooltips="1" connect="1" arrows="1" fold="1" page="1" pageScale="1" pageWidth="827" pageHeight="1169" math="0" shadow="0">
            <root>
                <mxCell id="0"/>
                <mxCell id="1" parent="0"/>
                <mxCell id="4" value="" style="group" vertex="1" connectable="0" parent="1">
                    <mxGeometry x="330" y="10" width="110" height="100" as="geometry"/>
                </mxCell>
                <mxCell id="2" value="«interface»&lt;br&gt;&lt;b&gt;Memento&lt;/b&gt;" style="html=1;" vertex="1" parent="4">
                    <mxGeometry width="110" height="50" as="geometry"/>
                </mxCell>
                <mxCell id="3" value="+ getText(): string" style="html=1;align=left;" vertex="1" parent="4">
                    <mxGeometry y="50" width="110" height="50" as="geometry"/>
                </mxCell>
                <mxCell id="5" value="" style="endArrow=block;dashed=1;endFill=0;endSize=12;html=1;entryX=0.5;entryY=1;entryDx=0;entryDy=0;" edge="1" parent="1" target="3">
                    <mxGeometry width="160" relative="1" as="geometry">
                        <mxPoint x="385" y="160" as="sourcePoint"/>
                        <mxPoint x="560" y="210" as="targetPoint"/>
                    </mxGeometry>
                </mxCell>
                <mxCell id="6" value="ConcreteMomento" style="swimlane;fontStyle=1;align=center;verticalAlign=top;childLayout=stackLayout;horizontal=1;startSize=26;horizontalStack=0;resizeParent=1;resizeParentMax=0;resizeLast=0;collapsible=1;marginBottom=0;" vertex="1" parent="1">
                    <mxGeometry x="310" y="160" width="160" height="86" as="geometry"/>
                </mxCell>
                <mxCell id="7" value="- text: string" style="text;strokeColor=none;fillColor=none;align=left;verticalAlign=top;spacingLeft=4;spacingRight=4;overflow=hidden;rotatable=0;points=[[0,0.5],[1,0.5]];portConstraint=eastwest;" vertex="1" parent="6">
                    <mxGeometry y="26" width="160" height="26" as="geometry"/>
                </mxCell>
                <mxCell id="19" value="" style="endArrow=open;dashed=1;endFill=0;endSize=12;html=1;" edge="1" parent="6">
                    <mxGeometry width="160" relative="1" as="geometry">
                        <mxPoint x="-70" y="42.5" as="sourcePoint"/>
                        <mxPoint y="43" as="targetPoint"/>
                    </mxGeometry>
                </mxCell>
                <mxCell id="8" value="" style="line;strokeWidth=1;fillColor=none;align=left;verticalAlign=middle;spacingTop=-1;spacingLeft=3;spacingRight=3;rotatable=0;labelPosition=right;points=[];portConstraint=eastwest;" vertex="1" parent="6">
                    <mxGeometry y="52" width="160" height="8" as="geometry"/>
                </mxCell>
                <mxCell id="9" value="+ getText(): string" style="text;strokeColor=none;fillColor=none;align=left;verticalAlign=top;spacingLeft=4;spacingRight=4;overflow=hidden;rotatable=0;points=[[0,0.5],[1,0.5]];portConstraint=eastwest;" vertex="1" parent="6">
                    <mxGeometry y="60" width="160" height="26" as="geometry"/>
                </mxCell>
                <mxCell id="10" value="Originator" style="swimlane;fontStyle=1;align=center;verticalAlign=top;childLayout=stackLayout;horizontal=1;startSize=26;horizontalStack=0;resizeParent=1;resizeParentMax=0;resizeLast=0;collapsible=1;marginBottom=0;" vertex="1" parent="1">
                    <mxGeometry x="20" y="160" width="220" height="110" as="geometry"/>
                </mxCell>
                <mxCell id="11" value="- text: string" style="text;strokeColor=none;fillColor=none;align=left;verticalAlign=top;spacingLeft=4;spacingRight=4;overflow=hidden;rotatable=0;points=[[0,0.5],[1,0.5]];portConstraint=eastwest;" vertex="1" parent="10">
                    <mxGeometry y="26" width="220" height="26" as="geometry"/>
                </mxCell>
                <mxCell id="12" value="" style="line;strokeWidth=1;fillColor=none;align=left;verticalAlign=middle;spacingTop=-1;spacingLeft=3;spacingRight=3;rotatable=0;labelPosition=right;points=[];portConstraint=eastwest;" vertex="1" parent="10">
                    <mxGeometry y="52" width="220" height="8" as="geometry"/>
                </mxCell>
                <mxCell id="13" value="+ addText(char: string);&#10;+ save(): Memento;&#10;+ restore(memento: Memento): void;" style="text;strokeColor=none;fillColor=none;align=left;verticalAlign=top;spacingLeft=4;spacingRight=4;overflow=hidden;rotatable=0;points=[[0,0.5],[1,0.5]];portConstraint=eastwest;" vertex="1" parent="10">
                    <mxGeometry y="60" width="220" height="50" as="geometry"/>
                </mxCell>
                <mxCell id="14" value="Caretaker" style="swimlane;fontStyle=1;align=center;verticalAlign=top;childLayout=stackLayout;horizontal=1;startSize=26;horizontalStack=0;resizeParent=1;resizeParentMax=0;resizeLast=0;collapsible=1;marginBottom=0;" vertex="1" parent="1">
                    <mxGeometry x="550" y="10" width="160" height="110" as="geometry"/>
                </mxCell>
                <mxCell id="15" value="- mementos: Memento[]&#10;- originator: Originator" style="text;strokeColor=none;fillColor=none;align=left;verticalAlign=top;spacingLeft=4;spacingRight=4;overflow=hidden;rotatable=0;points=[[0,0.5],[1,0.5]];portConstraint=eastwest;" vertex="1" parent="14">
                    <mxGeometry y="26" width="160" height="34" as="geometry"/>
                </mxCell>
                <mxCell id="16" value="" style="line;strokeWidth=1;fillColor=none;align=left;verticalAlign=middle;spacingTop=-1;spacingLeft=3;spacingRight=3;rotatable=0;labelPosition=right;points=[];portConstraint=eastwest;" vertex="1" parent="14">
                    <mxGeometry y="60" width="160" height="8" as="geometry"/>
                </mxCell>
                <mxCell id="17" value="+ backup();&#10;+ undo();" style="text;strokeColor=none;fillColor=none;align=left;verticalAlign=top;spacingLeft=4;spacingRight=4;overflow=hidden;rotatable=0;points=[[0,0.5],[1,0.5]];portConstraint=eastwest;" vertex="1" parent="14">
                    <mxGeometry y="68" width="160" height="42" as="geometry"/>
                </mxCell>
                <mxCell id="18" value="" style="endArrow=diamondThin;endFill=0;endSize=24;html=1;startArrow=none;startFill=0;startSize=12;" edge="1" parent="1">
                    <mxGeometry width="160" relative="1" as="geometry">
                        <mxPoint x="440" y="59.5" as="sourcePoint"/>
                        <mxPoint x="550" y="59.5" as="targetPoint"/>
                    </mxGeometry>
                </mxCell>
            </root>
        </mxGraphModel>
    </diagram>
</mxfile>